<?xml version="1.0" encoding="iso-8859-1"?>
<!-- Uploaded to: SVG Repo, www.svgrepo.com, Generator: SVG Repo Mixer Tools -->
<svg fill="#000000" height="800px" width="800px" version="1.1" id="Layer_1" xmlns="http://www.w3.org/2000/svg" xmlns:xlink="http://www.w3.org/1999/xlink" 
	 viewBox="0 0 312.844 312.844" xml:space="preserve">
<g id="XMLID_806_">
	<path id="XMLID_807_" d="M250.703,312.844c4.142,0,7.892-1.679,10.606-4.394c2.714-2.714,4.393-6.465,4.394-10.606V62.142
		c0-3.979-1.58-7.794-4.394-10.606L214.169,4.395c-2.813-2.813-6.628-4.394-10.606-4.394L109.282,0
		c-3.979,0-7.794,1.58-10.606,4.394L51.534,51.535c-2.813,2.813-4.393,6.628-4.393,10.606v235.701c0,8.284,6.715,15,15,15
		L250.703,312.844z M156.422,68.397c12.427,0,22.5,10.073,22.5,22.5c0.001,12.425-10.074,22.5-22.499,22.499
		c-12.428,0.002-22.501-10.071-22.5-22.5C133.922,78.472,143.996,68.396,156.422,68.397z"/>
</g>
</svg>